<svg version="1.1" xmlns="http://www.w3.org/2000/svg" style="display: block;" viewBox="0 0 2048 2048" width="1024" height="1024" preserveAspectRatio="none">
<path transform="translate(0,0)" fill="rgb(52,52,52)" d="M 838.47 410.572 C 858.921 409.401 881.429 409.852 902.012 410.085 L 901.992 608.733 C 846.145 605.516 788.578 611.853 736.207 632.28 C 529.936 712.734 476.086 977.991 530.83 1171.34 C 560.181 1275.01 625.712 1369.38 726.585 1413.09 C 798.087 1444.08 898.974 1450.89 972.079 1421.71 L 971.985 1124.42 C 963.962 1124.22 955.572 1124.23 947.549 1124.33 C 879.295 1125.18 810.024 1122.79 741.887 1125.11 C 742.604 1102.53 742.11 1077.06 742.113 1054.23 L 742.057 923.053 C 841.877 925.93 943.617 922.049 1043.66 923.569 C 1091.85 924.301 1142.05 924.194 1190.15 923.029 C 1189.71 959.23 1190.03 996.005 1190.01 1032.25 L 1190.04 1351.68 L 1190.05 1454.11 C 1190.05 1472.98 1189.48 1497.14 1190.8 1515.61 C 1124.34 1588.51 1005.61 1630.74 909.403 1636.58 C 763.681 1646 613.603 1604.8 503.475 1505.64 C 254.236 1281.22 242.601 830.039 463.129 582.296 C 561.392 471.908 692.478 418.516 838.47 410.572 z"/>
<path transform="translate(0,0)" fill="rgb(52,52,52)" d="M 1167.43 409.515 L 1263.38 409.887 C 1324.14 409.847 1370.39 408.133 1430.68 421.121 C 1521.91 440.777 1596.71 486.797 1648.48 565.579 C 1696.29 638.335 1711.17 736.873 1693.26 821.271 C 1681.42 879.185 1651.19 931.727 1607.08 971.068 C 1591.32 984.872 1579.21 992.75 1561.91 1004.05 C 1595.8 1020.8 1619.98 1033.49 1647.68 1060.31 C 1774.3 1182.92 1770.39 1411.64 1645.72 1534.4 C 1582.77 1596.38 1498.95 1629.17 1411.64 1636.48 C 1376.21 1639.45 1338.26 1637.93 1302.84 1637.92 C 1248.27 1637.76 1193.7 1637.93 1139.14 1638.43 C 1187.3 1612.77 1222.86 1579.77 1259.44 1539.9 C 1260.45 1524.75 1259.91 1505.73 1259.97 1490.41 C 1260.03 1476.38 1260.4 1458.1 1259.32 1444.33 L 1287.21 1444.35 C 1360.53 1443.48 1442.43 1452.39 1498.52 1393.49 C 1553.58 1335.67 1549.24 1221.12 1489.95 1167.56 C 1455.01 1136 1400.99 1122 1354.54 1121.74 C 1323.67 1121.88 1290.62 1120.6 1259.94 1122.08 C 1259.36 1102.5 1259.95 1078.9 1259.94 1059.08 L 1259.9 921.194 C 1265.19 921.447 1270.48 921.625 1275.77 921.728 C 1340.02 922.905 1405.08 921.976 1452.29 874.262 C 1526.13 799.627 1504.15 661.118 1404.72 620.39 C 1357.15 600.906 1321.66 603.908 1273.18 603.984 L 1172.88 604.019 C 1171.61 685.862 1172.7 770.785 1172.74 852.84 C 1157.63 851.391 1123.79 852.343 1106.73 852.353 C 1061.83 852.29 1016.92 852.453 972.026 852.843 L 972.008 409.69 C 1010.63 409.962 1049.25 410.004 1087.86 409.816 C 1111.89 409.906 1144 410.963 1167.43 409.515 z"/>
</svg>